<svg width="1080" height="1080" viewBox="0 0 1080 1080" fill="none" xmlns="http://www.w3.org/2000/svg">
<path d="M507.8 10.8C538.5 6.6 567.5 22 581.5 49.4C608.3 30.6 620.2 47.4 616.4 75.8C615.7 80.9 609.8 90.8 610.9 94.3C611.3 95.4 625.6 107.1 627.2 110.7C675.1 86.8 745.5 80.4 790.2 112.5C794.8 168.6 727.1 207.9 676.5 208.3C683.3 243.2 684.6 274.9 664.8 306C651.9 323.7 655.6 315.9 656.3 337.6C654.8 386.4 599.2 389.5 619.9 394.4C665.7 398.1 750.9 365.4 766.7 430C835.5 437.8 908.7 457.5 966.5 495.7C968.6 496.1 979.2 490.6 982.2 489.1C992.9 483.6 1017.9 463.9 1026.6 461.9C1039.6 458.9 1052.2 465.5 1047.7 480.2C1045.1 488.4 1021.8 493.8 1013.7 497.6C1000.3 503.8 986.6 512 973.4 518.8C964.4 595.1 921.6 659.8 881.1 722.6C872.1 728.9 866.4 719.2 862.6 721.1C790.1 774.9 709.6 817.4 626.6 852.8C620.9 867.9 618.3 884.4 611.9 899.6C586.7 991.4 357.7 1066.4 370.2 1006.9C391.5 978.8 454.1 965.6 449.2 919.3C444.7 919.7 440.2 921.5 435.5 920.8C432.4 920.4 434.8 916 426.2 918.5C413.6 922.2 405.7 931.8 395.7 938.1C389.2 942.2 365.8 954.9 359.3 956.1C349.2 958 347.3 951.3 340.4 946.4C322.9 993.4 258.9 1026.8 211.6 1004.3C201.1 999.3 202.8 993 188.6 995.7C176.5 997.9 167.1 1003.1 152.9 1005.1C126.8 1008.5 93.9 997.5 69.9 987.2C66.6 985.7 50 976.2 48.5 974.3C42.8 967.5 52.3 957.4 55.2 951C69.3 919.7 78.8 887.5 103.5 862C107.1 858.3 119.2 851.2 119.7 850.3C121.4 847.5 115.3 837.7 115.8 831.4C118 802.4 148.9 774.3 174.4 764C177.9 762.6 191 757.5 193.7 757.5H233C222.9 735.4 231.2 734.9 248.2 726.2C265.2 717.6 283.4 711.4 300.2 702.4C303.6 701.1 299.2 689.4 298.6 689C277.5 686.2 246.4 690.5 225.9 699.6C204.7 705.8 130.9 755.2 135 707.4C166.3 656.3 238 601 297.4 583.7C301 582.7 318.4 580.3 318.9 578C314.2 569.6 310.6 561.1 308.8 551.6C290.9 557.3 250 551.6 241.3 532.6C237.1 523.4 243.2 516.1 241.4 511C230.2 502.8 220.1 480.4 230.1 467.8C233.2 464.3 240.8 464.5 241.2 462.2C238.2 447.2 239 427.2 248.1 414.3C251.1 410 260.4 401.3 265.5 400.2C284.7 396.2 279.5 416 284.9 427.4C291.2 440.9 308.4 449.5 322.9 448.3C346.5 397.9 385.9 357.2 413.2 309.1C398 288.8 386 267 383.1 241.2C335.5 249.7 275.4 238.8 245.2 196.7C223.8 167.6 231.2 158.7 261 144.1C302 124 356.4 117.2 398.2 138C399.6 135.3 407.3 128.2 407.1 126C406.9 123.1 383.4 106.1 379.2 104.2C366.2 98.2 351.7 99.8 340.9 95.3C324.7 88.6 333.8 68.6 341.7 58.7C368 26.2 424.5 27.5 456.1 49.4C462.5 27.3 485.5 12.3 507.6 10.8H507.8ZM516.3 25.1C510.9 24.2 494.8 29 493.7 34.6C493.2 37.3 496.5 45.2 499.9 40.9L516.3 25.2V25.1ZM526.4 32.3C522.2 35 512.4 42.9 510.6 47.2C508.9 51.2 507.7 63.3 513.6 60.2C518.4 57.7 525.2 46.9 532.2 43.7C534.7 42.6 548 40.9 547.9 38.7C540.9 32.4 535.3 26.7 526.5 32.3H526.4ZM487.7 38C486.6 36.8 474 45 476.3 49.4L490.6 50.8L487.7 37.9V38ZM536.4 53.7C523.7 62.8 516.9 74.2 539.5 67.6C548.3 64.7 553.2 59.5 562.1 58C557.2 44.8 545.9 47.2 536.4 53.7ZM396.2 58C388.5 67.5 377.4 89.2 396.2 92.3C397.4 86.2 400.1 79 403.4 73.7C404.6 72.9 407.1 69.9 407.7 68C410.5 64.9 420 59.1 421.3 56.6C423.8 51.7 408.7 50.3 405.6 50.8C402.5 51.3 398.4 55.8 396.2 58ZM424.8 66.6C417 73.6 397.6 98.4 411.9 106C415.6 108 418.6 99.2 420.8 96.2C425.9 89.4 432.3 83 439.1 78C440.9 76.8 456.1 71.9 453.4 68C452.9 67.2 438.6 59.5 436.8 59.4C433.2 59.2 427.7 64.2 424.8 66.6ZM592.2 88.1C595.9 81.1 600.4 69.7 595.8 62.4C582 72.1 554.4 83 539.4 87.5C528.5 89.5 502.8 86 494.4 92.3C492.8 93.5 493.8 97.3 492.8 99.6C490.8 104.2 472.9 108.5 467.2 111.2C449.1 120.2 435 136.7 419.1 148.9C421.2 152 428.8 156.7 429 160.3C429.2 163 425.3 170.5 422.7 170.7C374.3 132.5 301.6 138.2 251.8 170.4C277.3 227 351.5 236.2 403.4 213.3C408.6 211.3 412.2 205.2 419.1 209.7C418.8 213.3 422.5 215.1 418 222.2C417 223.7 407.7 231.8 406.2 232.6C405.6 233 402.6 232 402.1 232.6C403.3 291.3 456.8 338.8 515 341.2C513.5 334.3 505.6 314.7 515.9 311.4C526.6 309.4 530.5 333.9 533.3 340.8C547.3 369.4 551.6 383.9 565 344.1L567.8 342.7C567.3 345.9 570.6 350.6 573.5 351.3C580.2 365.8 584.3 381.2 576.4 396.4C581 397.3 589.7 389.8 593.6 386.4C623.2 362.6 603 335.5 619.3 338.5C623.1 342.7 621.7 375.3 629.3 357.1C636.6 345.1 637.9 338.4 636.5 323.5C636.2 320.1 632 310.6 633.8 308.6C634.1 308.2 640.2 307.3 642.8 305.4C672.1 274.7 662.9 230.8 653.7 194C623 248.2 565.4 158.2 624.4 145.3C627.3 145.1 634.9 148.5 633.6 144.7C631.3 137.7 608 111.5 601.1 109.8C597.1 108.8 593.8 115.2 590.6 117.4C582.3 123 554.8 131.9 550.9 118.6C548.2 109.2 555.4 112 560.7 110.4C573.5 106.2 585.8 100.9 592.1 88.2L592.2 88.1ZM497.7 70.9C496.8 69.7 479.3 66.9 477.7 68C478.6 70.6 483.4 77.3 485.8 77.8C486.8 78 500.1 74 497.7 70.9ZM444.8 88.1C437.8 90.5 439.6 92.6 436.2 96.7C430.8 103.2 423.7 109.9 424.8 119.6C427.4 122.3 442 106.1 444.8 103.9C447.8 101.6 454.3 97.3 457.7 95.3C461.9 92.8 467 92.4 470.5 88.9C464.6 75.4 453.3 79.7 444.8 88.2V88.1ZM646.5 131C648.6 134.9 653.3 147.9 657.2 148.2C663.4 148.8 682.3 138.9 689.4 136.7C713 129.9 738.9 122.4 763.8 123.8C764.1 131.5 759.2 135.6 755.2 141C723.3 139.5 693.4 155.9 663.6 165.3C662.3 166.7 668.6 177.4 669.3 179.6C672.6 189.7 665.6 190.6 683 189.7C719.9 187.7 766 158.9 773.2 120.9C740.4 107.6 705.2 106.9 670.5 114.2C666 115.1 643.1 120.9 642.3 124.6C641.6 127.7 645.8 129.7 646.5 130.9V131ZM631.8 158.4C617.9 161.2 624.4 184.1 636.9 182.2C651.4 180 647.9 155.1 631.8 158.4ZM400.5 362.7C355.9 425.7 287.5 507.9 346.4 586.3C362 606.6 402.9 636.1 429.1 624.5L436.3 625.9C437.7 633.9 445.9 686.4 449.4 688.6C452.9 690.8 473.7 685.7 479.2 684.5C485.7 683.1 507.1 679.7 509 673.5C513.6 617.4 514 545.1 445 532.1C436.7 530.1 421.3 532.5 420.7 522C422.6 500.8 481.6 523.4 490.1 534.2C492.7 529.3 514.7 520.8 513.7 516.4C513.1 513.9 497.8 508.6 494.6 506.8C473.3 494.4 441 469.7 442.1 442.7C448.4 438.4 455.3 438.2 459.3 445.6C478.8 490.7 549.1 512.1 593.6 519.8C596.9 511.2 596.7 501.4 599.5 492.8C605.8 483 609.2 470.7 613.8 459.9C588.7 452.2 563.1 440.2 541 426.2C526 416.6 501.2 398.2 490.8 384.1C489.6 379.4 496.8 374.8 500.3 374.5C507.3 373.9 521.9 389.9 528.1 394.7C531.4 397.2 552.6 412.7 554.4 412.7C557.1 403.4 560.7 394 560.8 384.1C539 397.9 529.7 378.6 523.4 360C394.3 350.6 450.6 287.1 400.6 362.7H400.5ZM635.1 412.8C625 413.9 607.3 410.9 597.3 408.5C593.5 409.9 590.8 412.5 586.9 413.9C583.6 415.1 569.9 416.8 570.8 420.6C572.4 427.9 636.3 448.3 646.2 452.5L679.3 444.1C678.8 431.3 681.8 418.8 686.6 407.1L635.1 412.8ZM702.3 412.8C698.2 420.2 696.3 428.8 695.1 437.1L743.7 427.1C745.5 426.9 745.4 425.3 745 423.7C744.7 422.2 743.2 422 742.3 421.4C738.7 418.9 733.7 418.4 731.1 414.4C725.5 412.3 702.7 402.5 702.2 412.9L702.3 412.8ZM258.9 437.1C255.3 455 257.6 468.7 267.5 484.3C265.2 503.8 236.3 467.7 248.8 492.2C257.1 512.6 286.9 508.4 276.1 521.5C272.3 521.7 266.3 525.1 261.8 524.4C265 534.4 302.3 536.7 306.1 532.9C306.9 532.1 305.7 518.7 306.1 515.8C307.3 508.2 306.7 502.5 307.5 495.8C308 491.6 317.2 466.8 316.1 465.8C288.8 463.4 270.7 447.5 263.9 421.5C261.6 426.7 260 431.6 258.9 437.2V437.1ZM954.1 511.5C892.5 466.2 799 445.9 722.4 450C720.9 451.4 732.4 480.5 735.3 484.3C742.5 509.4 759.8 540.7 772.5 564.4C798.4 612.7 828.3 661.9 869 698.9C870.2 699.8 871 701.3 872.7 699.6C907.8 643.6 952.6 578.8 954.2 511.4L954.1 511.5ZM712.3 477.1C702.2 441.9 705.4 456.2 669.4 465.7L679.5 480.6L680.9 494.3C673.3 511 668.4 532.6 648 541.5C615.9 541.5 591.1 540.4 559.3 532.9C531.7 519.1 526.9 537.4 503.5 545.8C532.9 581.2 528.2 620.9 527.8 663.8C527.8 666.2 526.9 670.2 529.3 671.7C530.4 693.1 543.4 713 535 734.6C522.6 753 464.3 763.4 451.7 741.3C436.7 712.9 422.9 678.5 420.4 646C406.5 645.5 397.7 643.5 386.3 636.5C380 635.1 337.7 674.4 330.4 680.9C328.1 683 318.7 688.7 318.9 690.8C355.9 762.3 397 832 441.2 899.2C486.127 887.325 529.02 870.993 572 853.5C632.53 828.864 692.25 800.712 749.5 768.9C773.2 757.9 835.3 719.5 849.6 703.8C800.3 660.8 772.1 599.2 740.9 542.9C741.5 537.7 737.1 533.9 735.2 530C726.9 513 719.6 494.5 712.3 477.1ZM626.5 472.9C622.9 480.4 604.8 521.7 615.8 524.4H638.7C643.7 524.4 655.6 515.1 650.9 510.1C647.8 506.8 630.4 501.1 637.2 491.4C641.8 484.9 656 495.8 658 495.8C662.1 495.7 661.1 487.7 659.8 484.7C657.6 479.7 629.9 465.5 628 467.2C628 469.3 627.4 471.1 626.6 472.9H626.5ZM516.3 694.6C514.5 692.8 506.6 697.3 507.7 698.9C513.7 696.6 514.4 724.5 519.1 724.7C517.4 720.7 517.3 695.7 516.3 694.7V694.6ZM479.1 703.2C473.1 704.5 467.4 704.1 461.9 706.1C461.1 706.4 458.9 705.3 459 706.9C464 724.6 468.2 737.5 489.8 733.3C504.7 731.7 499.5 729.7 499.1 719.7C498.9 714.2 499.2 708.7 499.1 703.3C499.5 701.7 501.6 698.5 499.8 697.6C493 698.9 485.6 701.9 479.1 703.3V703.2ZM307.5 720.3C302.3 722.3 298.4 725.5 293.3 727.6C309.5 758.9 331.4 790.7 349 821.9C363.9 848.8 380.5 875.5 396.2 902C397.6 904.6 394.7 908.9 401.9 907.1C402.8 906.9 415.6 901.1 416 900.4C417.5 898 415.3 896.3 414.7 894.8C378.1 838.9 345.8 775.4 311.7 718.9C309.4 718 308.4 719.9 307.4 720.3H307.5ZM298.9 776.1C292.5 771.9 279.4 734.4 273.9 733.2C266.1 738.6 256.6 744 247.4 746.1C274.8 799.5 309.2 855.5 340.4 907.7C356.7 936.5 349.6 939.7 381.2 922C385.5 918 381.7 917.4 380.4 914.8C378.7 911.1 375.9 903.2 371.8 903.4C350.7 860.2 321.9 818.8 298.8 776.1H298.9ZM101.5 897.7C88.7 916.4 84.2 929.1 75.3 949.5C73.9 952.8 66.2 964.3 67.8 966.5C104.4 985.5 157.4 996.3 195.9 973.6C206.5 974.3 201.3 975.1 206.6 979.3C233.1 998.9 269.8 994.5 294.6 975C309.5 966.7 321.6 948.6 328.3 933.6C331.4 923.3 317.2 911.2 313.2 902.1C288.8 860.5 265.2 817.4 240.7 776.4C199.8 768.8 145.6 784.9 135.9 830C134.9 841 138.4 837.4 143 842.7C145.6 845.7 148.7 854.2 146.5 857.7C145.1 859.9 125.1 869.9 120 874.1C111.5 881.3 107.4 888.9 101.4 897.7H101.5ZM599.5 865.5C555.1 880.6 513.7 899 468.5 911.8C464.2 958.3 439 981.7 399 1003.5C395 1005.7 389.3 1009.2 398.1 1009.1C414.714 1006.62 431.576 1002.7 448.5 998C500.656 983.523 550.671 957.336 581 914.5C591.298 899.955 599.943 883.932 604.8 865.2C605.6 861 601.7 864.3 600.7 864.7L599.5 865.5Z" fill="#010125"/>
<path d="M803.5 863C800.8 865.4 790.4 865.7 785.9 869C779.6 873.7 780.8 891.1 768.7 890.4C761 890 759.8 875.2 755.8 870.6C749.9 863.9 736.9 866.9 734.4 859.1C730 845.9 748.7 849.8 755.4 844.1C762.1 838.4 757.6 821.5 768.1 818.2C786.4 812.3 779.7 837.1 786 843.4C796.4 850.4 814.7 843.2 803.6 863H803.5Z" fill="#020124"/>
<path d="M760.6 222.9C764.1 226.2 764.7 240.1 768.5 243.6C773.9 248.7 790.5 245.1 789.5 258.9C788.8 268.9 773.4 268.4 768.2 273.3C763 278.2 763.9 296 751.6 295.3C743.6 294.8 741.9 277.5 737.3 272.6C731.3 266.1 715.5 271 716.7 256.2C717.5 246.7 731.9 248.3 737.5 242.6C742.3 237.7 742.3 226 747.6 222.6C750.9 220.5 757.9 220.2 760.7 222.8L760.6 222.9Z" fill="#030223"/>
<path d="M279.8 290.7C286.3 284.4 284 269.5 294.5 267.4C308.2 264.7 305.9 284 310.1 289.1C313.7 293.4 329.3 292.1 331.4 302.2C334.1 315.1 314.8 314.1 309.4 321.1C305.8 325.6 306.7 338.4 298 339.8C285.6 341.9 287.6 327.1 281.7 320.4C275.8 313.7 262.7 315 260.4 307.3C257 295.8 274.2 295.9 279.7 290.7H279.8Z" fill="#030225"/>
<path d="M52.5 817.9C89.1 810.4 75 846.8 47.5 850.1C36.9 851.4 28.5 843.7 31.8 832.8C33.2 828 47.7 818.8 52.6 817.8L52.5 817.9Z" fill="#030127"/>
<path d="M310 1025.3C324.3 1023.3 324.7 1035.4 315.9 1044.1C306.6 1053.3 268 1072.2 273.2 1045.7C274.4 1039.3 303.3 1026.2 310 1025.2V1025.3Z" fill="#030125"/>
<path d="M202.8 1041.1C212.8 1040.8 214.4 1052.1 207.3 1058.6C202.8 1062.7 182.3 1071.5 176.2 1072C165.8 1072.8 156.8 1063.7 164.5 1055.9C168.4 1051.9 196.8 1041.4 202.8 1041.2V1041.1Z" fill="#030126"/>
<path d="M687.7 883.7C694 882.8 698.3 886.9 699.3 893.1C701.7 907.8 659.9 915.7 668.8 894.9C670.5 890.8 683.3 884.3 687.7 883.7Z" fill="#040324"/>
<path d="M592.2 88.1C588.9 89.9 585.6 92.6 582.6 96.3C576.4 98.8 573.5 101.8 573.6 105.3C559 114 547.5 107.4 551 118.6C554.9 131.9 582.4 123 590.7 117.4C593.9 115.2 597.1 108.8 601.2 109.8C608.2 111.5 631.4 137.6 633.7 144.7C634.9 148.5 627.4 145.1 624.5 145.3C565.5 158.2 623 248.3 653.8 194C663 230.7 672.2 274.7 642.9 305.4C640.3 307.3 634.2 308.2 633.9 308.6C632.1 310.6 636.3 320.1 636.6 323.5C638.1 338.4 636.8 345.1 629.4 357.1C626.8 361.3 624.8 361.9 624 356.5C624.9 348.9 623.4 342.9 619.4 338.5C603.1 335.5 623.3 362.7 593.7 386.4C589.8 389.9 581.2 397.3 576.5 396.4C577.3 393.3 580.4 386.7 580.8 384.2C581.7 379.6 585.3 378 589.4 377C587.9 362.2 583 347.3 571.4 336.7C570 339.9 567.9 342.4 565.1 344.1C562.4 350.8 560.9 358.2 556.5 364.1C544.9 356.6 544.4 333.7 543.4 321C540.8 314.5 535.6 309.9 527.6 307.1C475.2 290 435.7 261.3 425.5 204.3C423.5 199.9 421.1 197.6 417.6 194.4V192.4C414.9 194.4 412.5 193 410.6 188.1L408 188.7C401.5 184.4 391.4 179.6 384.1 184.2C346.4 173.7 304 163.9 265.5 174L261.9 172.4C261.2 181.4 249 172.8 256.2 168.1C299.1 141.6 358.2 134.2 404 158.3C407.9 160.4 420.1 170.7 422.9 170.5C425.7 170.3 429.4 162.8 429.2 160.1C429 156.5 421.4 151.8 419.3 148.7C435.1 136.5 449.3 120 467.4 111C473.1 108.2 491 103.9 493 99.4C495 94.9 493 93.3 494.6 92.1C502.9 85.8 528.6 89.3 539.6 87.3C554.7 82.8 582.2 71.9 596 62.2C600.6 69.5 596.1 81 592.4 87.9L592.2 88.1Z" fill="#FEFEFE"/>
<path d="M400.5 362.7L403.5 362.9C410.3 373.4 420.8 382.4 431.9 388.2L436 386.4C449.8 372.1 469.7 369.9 488.3 375.2C490.6 376.1 491.4 379.1 490.6 384.2C521.6 420.1 568.7 445.7 613.6 460C609 470.8 605.6 483.1 599.3 492.9C547.4 490.2 503.2 456.5 461.8 430.5C461.6 439.6 458.6 442.6 452.9 439.5L447.8 439.9C443.9 441.6 440.4 442.9 440.6 447.8C442.4 464.1 450.6 480.3 458 494.6C460.5 504.9 460.6 519.5 446.3 514.3C438 514.8 419.8 510.3 420.6 522.1C421.3 532.6 436.6 530.2 444.9 532.2C513.9 545.2 513.6 617.6 508.9 673.6C507 679.8 485.6 683.2 479.1 684.6C475.2 685.4 474.3 683.5 476.2 678.9C472.8 677.7 471.9 671 474.8 668.9C469.9 648.7 468.8 615.3 449.4 604.2C373 584 344.7 517.9 359.4 444.1C311.2 504.2 337.9 602.3 417.9 616.6L421.9 620.3C450.1 625.4 389.9 642.3 346.3 586.4C287.4 508 355.8 425.7 400.4 362.8L400.5 362.7Z" fill="#FEFEFE"/>
<path d="M845.4 700.3L843.7 704.2C814.3 724.8 783.6 744.3 751.6 762.8L742.4 764.7C700.4 797.3 645.9 817 597.6 838.7C592.7 840.6 587.4 841.4 582.2 841.9C546.7 863.6 504.4 873 465.6 887.6C459 890.4 451 888.7 444.9 892.2C439.2 889.6 428.6 872.3 429.2 866.2C427 862.1 430 860.4 433.8 859C499.4 839.5 563.3 808.5 628.1 786.1C631.1 780.2 637.3 777.5 643.8 778.9C644.8 774.1 647.9 772.5 652.4 774.6C655.2 771.6 658.4 768.7 661.9 766.8C688.9 754.3 714.1 736 742.5 727.4C743.9 725 745.6 722.4 747.9 720.8C766.1 708.8 784.6 696.9 803 685.2C805.4 683.8 808.4 683.2 811.2 683C809.6 679.3 817.8 673.1 821.2 674.4C828.1 683 837.2 692.9 845.5 700.2L845.4 700.3Z" fill="#595C80"/>
<path d="M690.9 488.6L693.9 489.6C702.4 507.5 711.2 525.3 720.3 543C730.2 550.1 740 557.3 749.3 564.7C756.7 583.5 765.5 601.7 775.7 619.2C775.5 624.5 775.4 629.3 767.6 624.7L758.4 633C757.9 645 756.9 653.1 747.2 661.7C740.9 675.3 734.6 687.9 722.6 697.4L721.5 707.5C716.5 712.7 714.5 717.8 715.6 723.1C721.7 720.1 728 717.9 731.6 725.6C735.8 723.4 744 720 742.5 727.4C713.3 744.7 682.9 759.7 652.4 774.6C645.6 772.9 642.7 774.3 643.8 778.9C636.9 781.8 614 795.1 626.6 777.4C622 768.8 625.4 766.3 631.2 763.2C683 763.8 707.6 723.2 716.7 677.4L714.3 673.2C732.7 536.9 537 528 533.3 659L530.7 663.1C530.7 666.7 530.3 669.5 529.3 671.7C526.9 670.2 527.9 666.3 527.8 663.8C527.4 633.3 531.1 602.1 520.7 572.9C519.4 568.6 518.9 564.7 519.4 561.1C510.9 561.3 514.6 550.1 520.7 554.3L527.8 552.2C557.7 555.5 588.5 556.9 619.2 557.7C635.2 558.7 651.9 558 663.3 545.1L666.7 545.7C665.8 544.9 665.4 543.8 665.6 542.6C669.7 538.2 682.5 519.1 671.3 520.9L671 518.5C674.1 513 678.6 497.1 681 494.2C681 489.1 686.9 485.1 691 488.5L690.9 488.6Z" fill="#B3BEC3"/>
<path d="M246 784.7C246.5 789.6 242.6 792.7 234.1 794.1C202.3 798.2 160.3 820.7 182.3 857.7C184 862.3 182 865.5 178.6 868.6C166.2 874.1 130.3 931.9 134.5 938.4C142.3 950.6 196.8 946.4 212 942.5H223.1C228.4 943.8 235.2 951.6 236 956.3C242.7 960.4 234.1 963.9 228.5 961.3C201.2 948.6 218.6 975.8 235.8 975.2L255.6 977.2L257.5 980.6C256.5 989.5 224 983.6 217.1 981.3C209.2 975.4 201.2 972.3 193.1 972C152.3 986.3 64.3 988.7 97 921.7C96.7 902.3 106.2 886.8 120.2 874C125.2 869.7 145.3 859.8 146.7 857.6C148.8 854.1 145.8 845.6 143.2 842.6C138.7 837.4 135.1 840.9 136.1 829.9C145.8 784.8 200 768.7 240.9 776.3C243.4 777.1 244.8 782.3 246.1 784.7H246Z" fill="#FD5C18"/>
<path d="M254.6 800.4L252.9 804.2C245.1 804.2 193.2 823.7 202.6 834.2L223.3 846.2C231.8 853.2 224.7 858.7 217.5 862.4C157.2 922.7 216.6 918 268.7 907.5C270.2 923.3 272.6 935.4 290 922L303.8 906C307.1 901.4 310.2 900 313.2 902C326.9 918.6 319.1 926.7 303.9 938.5C292.5 946.6 245.4 973.6 236 956.4C228.6 953 229 948.9 225.4 946.3C220.2 942.5 194.5 948.7 186.6 949.2C170.8 949.3 141.7 952.3 131.5 938.5C130.3 928.7 153.8 890.5 160.9 882C164.2 878 179.2 865.3 180 862.4C181.1 858.3 173.1 846 172.9 838.4C172.3 815.9 197.9 800.7 216.7 794.9C226.3 791.9 239.4 792.5 245.9 784.8C248.9 789.9 251.5 795.5 254.5 800.5L254.6 800.4Z" fill="#FBCE3B"/>
<path d="M313.2 902C304.1 906.9 298.9 919 291 924.9C274.1 937.6 265.4 928.1 267.4 909.2C216.2 924.8 153.2 922.3 214.4 861.2C218.2 857.5 227.8 855.2 223 849.8C218.9 845.3 201.7 839.4 199.3 834.8C196.9 830.1 205.4 821.2 208.8 818.5C222.6 807.5 239 807.2 254.4 800.5C274.3 834.1 293.4 868.3 313 902.1L313.2 902Z" fill="#FEFEFE"/>
<path d="M474.9 668.8C459.4 665.2 481.2 637.9 445 630.2L442 625.9C437.9 626.7 431.3 623.6 427.5 623C424.5 622 423 621 423 621C329.5 618.1 299.2 500.1 363.2 435.7C352.6 494 359.2 558.9 417.5 588.1C446.3 603.5 460.7 594.9 469.5 632C472.3 644.1 473.9 656.6 474.8 668.9L474.9 668.8Z" fill="#B3B5D4"/>
<path d="M556.4 364.1C554 367.3 551.4 370.9 547.1 367C545.9 365.9 534.5 343.9 533.3 340.8C530.5 333.9 526.6 309.4 515.9 311.4C507.1 313.1 512.2 331.4 513.6 336.9C469.8 339.9 401 280.3 406.3 232.5C407.8 231.7 417.1 223.6 418.1 222.1C426.4 212 407.1 195.1 417.8 192.4C430.8 197.4 430.2 213.7 434.3 225.3C442.9 249.6 461.7 272.7 484.1 285.7C498.4 294 537 303.8 544.4 315.6C548.2 321.7 545.7 325.8 546.8 331.8C548.8 342.9 552.5 353.8 556.7 364.1H556.4Z" fill="#B0B1D1"/>
<path d="M954.1 511.5C954.4 513.7 953 513.7 949.8 511.5L946.2 513.9C899.4 497.4 849 494.9 801.5 481.5C800.3 487.1 798.7 492.9 794.2 496.8L791 495.7C777 499.2 770.6 487.2 765.7 476.3C756.9 477.3 747.1 477.1 738.5 477.8C737.6 481.1 736.5 483.3 735.2 484.3C732.3 480.5 720.8 451.4 722.3 450C798.8 445.9 892.5 466.2 954 511.5H954.1Z" fill="#FDFDFD"/>
<path d="M331.8 605.9C339.8 610.6 335.9 627 332.5 634.6C322.5 656.6 299.8 663.4 277.7 666.1C270.6 670.3 262.8 673.5 253.5 674C224.4 682.6 200.2 690.7 172.7 703.6C168.9 705.4 151.2 718.1 156.9 706.4C189.9 673.2 285.1 598.9 331.7 605.9H331.8Z" fill="#FD5F1B"/>
<path d="M464.8 937.8C465.8 931.2 468.2 929.2 472.2 931.8C496.2 924.1 520.2 915.4 544.1 905.8C549.8 905.5 571.5 895.3 565 909.1L566.2 912.9C559.6 923.4 552 933.1 543.5 942L544 945.8C528.1 962 506.6 971.6 486 980.6C477.2 983.5 447 996 441 997L438.8 997.8C436.4 999.1 381.7 1016.7 395 1005C432.9 984.1 443.8 974.6 464.8 937.6V937.8Z" fill="#F85516"/>
<path d="M400.5 362.7C450.6 287.2 394 350.5 523.3 360C529.6 378.7 538.9 397.9 560.7 384.1C560.5 394 557 403.4 554.3 412.7C552.5 412.7 531.3 397.2 528 394.7C521.8 389.9 507.2 373.9 500.2 374.5C496.7 374.8 489.5 379.5 490.7 384.1C489.1 381.9 489.7 379.1 488.3 378.3C481.2 374.2 459.3 375.2 451.5 378.5C445.2 381.2 436.8 391.7 431.7 391C425.6 390.1 402.1 370.2 400.6 362.6L400.5 362.7Z" fill="#B8B9D7"/>
<path d="M399 643.1C409.9 647.3 390.5 651.6 385.3 660.5L381.8 660.3C384.7 665.4 383.4 667.5 378.4 670.5C365.5 678 353.6 687.6 342.7 699.2L340 699.7C360.1 735.2 380.4 770.6 400.9 805.9L400.4 809L404.6 810.8C414.1 827.5 422.5 844.6 429.9 862.2L427.5 866.2C431.2 870.1 425.2 873.9 421.8 869.1C385 811.3 350 751.9 318.8 690.9C330.6 680.8 373.6 639.6 386.2 636.6C388.6 637.1 395.1 642 399 643.1Z" fill="#F9FCFD"/>
<path d="M399 643.1C405.6 645.1 413.5 645.4 420.4 646C422.8 678.5 436.7 712.9 451.7 741.3C464.3 763.3 522.4 753 535 734.6C543.1 735.8 538 750.7 534.4 756C530.2 762 518.1 771.3 510.7 771.8C508.8 777 497.8 778.8 492.1 779.7C471.9 784.4 448.5 771.1 442 751.8C422.7 734.1 421.5 700.3 418.9 675.5C405 675.4 392.8 671.8 382.2 664.8L381.9 660.3C387 653.5 390.8 651.2 397.7 646.7C399.8 645.3 402 647.3 399.1 643.2L399 643.1Z" fill="#7C7E9C"/>
<path d="M599.3 492.9C596.1 500.3 598.4 510.5 592.9 516.7C542.4 511.5 491.4 484.9 459.1 445.7C456.1 441.1 453.6 439 447.7 440C463.2 436.7 455.6 442.4 459.2 427.1C462.4 424.4 498 451.4 503.7 454.9C533.6 473.1 565.9 483.6 599.4 492.9H599.3Z" fill="#B3B9D8"/>
<path d="M296 779L298.5 779.3C310.8 801.6 322.9 822.3 334.8 841.5L336.1 840.6C342.4 851.4 349.5 862.7 356.1 873.5C356.9 880.8 353 879.5 344.5 869.7C343.6 869.7 328 875 327.5 875.7C326 878 338.5 895.9 343 897.6L341.8 900.6C346.2 898.4 350.6 908.9 346.1 910.6C343.8 913.7 340.4 904.8 341.1 904.9C341.3 904.9 342.7 908.5 340.4 907.8C314.3 866.4 291.1 824.1 268.5 780.5C269.2 774.5 268.8 768.1 267.3 761.4L270.3 759.1C268.6 753.2 275.6 750.7 280.8 753.4C281.6 754.6 300.3 777.8 296 779.1V779Z" fill="#A5ADB4"/>
<path d="M294.6 975C286.3 980.7 281 980 287.6 969.7C279.7 975.3 271 980.1 261.6 982.7C252.3 977.6 241.6 979.9 231.3 977.5C223.4 975.7 207.7 968 212.3 957.9C215.5 947.5 236.7 967 235.9 956.4C257.8 966.7 313.8 936.7 320.3 913.5C323.8 919.6 330.9 925.3 328.3 933.6C321.6 948.7 309.5 966.7 294.6 975Z" fill="#FC681C"/>
<path d="M576.4 873.4C592.6 868.2 570.6 903.5 568.4 908.7L564.9 909.2C570.2 889 469.5 946.1 468.4 932.1C466.9 933.8 461.1 945.1 460 947L468.5 911.5C505.3 901.2 540.6 886.5 576.4 873.4Z" fill="#AB2D1D"/>
<path d="M647.9 541.5H650.5C656.1 538.7 668.5 537.7 666.5 545.8C640.3 574.2 596.5 553.6 562.7 558.7L520.6 554.3C524.1 542.9 548.4 532.4 559.2 532.8C591 540.3 615.8 541.5 647.9 541.4V541.5Z" fill="#7B83A8"/>
<path d="M619.3 412.8C620.9 416 612.5 413.5 612.9 413.5C617.4 413.3 620.9 416.8 623.4 423.8C626.2 425 628.6 426.6 630.7 428.6L634.1 426.2C648.3 428.1 663.1 428.5 676.9 424.1L680.7 425.7C679.5 432.2 678.8 437.5 679.1 444.2L646 452.6C636.1 448.4 572.1 427.9 570.6 420.7C569.8 416.9 583.4 415.1 586.7 414C590.6 412.6 593.3 410 597.1 408.6L619.2 412.9L619.3 412.8Z" fill="#B6B9D4"/>
<path d="M769.5 119.5C775.6 125.2 767.2 130.6 763.3 122.9C738.6 123 712.9 129.7 689.4 136.6C671.1 137.7 666.6 149.6 653.7 129.1C651 130.5 648.6 131.1 646.5 130.9C645.8 129.7 641.6 127.7 642.3 124.6C643.2 120.8 666 115.1 670.5 114.2C704 107.2 737.2 107.5 769.5 119.5Z" fill="#FCFCFC"/>
<path d="M193 972.1C194.7 972 195.7 972.4 195.9 973.5C157.4 996.2 104.3 985.4 67.8 966.4C66.2 964.2 73.9 952.7 75.3 949.4C84.2 929 88.7 916.3 101.5 897.6C100.2 905.8 101.5 913.8 99.7 922.3C98 929.9 93.3 937.1 92.8 945.5C92.1 991.6 165.1 973.9 193 972V972.1Z" fill="#F44112"/>
<path d="M336.1 604.5C336.8 608.7 334.7 609 331.8 605.9C268.212 613.861 217.398 662.918 166.745 697C166.59 697.104 166.154 697.396 166 697.5C166.094 697.437 165.906 697.563 166 697.5C177.3 671.4 316 565.4 336.1 604.5Z" fill="#FAFCFA"/>
<path d="M258.9 437.1C260 431.5 261.6 426.5 263.9 421.4C270.7 447.4 288.8 463.4 316.1 465.7C317.2 466.8 308 491.5 307.5 495.7C306.2 501.6 297.1 500.1 292.2 498.7C272.4 493.1 253.3 457.3 258.9 437V437.1Z" fill="#FDFEFE"/>
<path d="M755.2 141V145.6C741.9 162.3 723.3 174.9 702.6 180.3C693.1 182.8 676.5 186.4 669.4 179.5C668.7 177.3 662.4 166.6 663.7 165.2C693.4 155.8 723.4 139.4 755.3 140.9L755.2 141Z" fill="#DE4854"/>
<path d="M954.1 511.5C952.5 578.8 907.8 643.6 872.6 699.7C871.6 707.1 822 651.1 833.9 656C836.6 654.6 837.6 655.6 836.8 658.9L838.5 658C847.7 667.5 857.5 676.5 867.9 684.8C903.6 632 935.6 575 949.8 513C946.7 511.3 953 511.5 954.1 511.6V511.5Z" fill="#D38B7D"/>
<path d="M735.2 530.1C738.3 538.9 748 552.4 745.2 561.6C736 560.7 732.1 555.4 725.9 550.1C711.8 544.8 705 516 697.7 502.5C695.1 497.7 689.4 492.2 691.2 485.2C698.2 482.2 705.3 479.5 712.3 477.2C719.6 494.7 726.9 513.2 735.2 530.1Z" fill="#A0ABB4"/>
<path d="M446.2 514.3C448.6 514.2 452.3 515.2 454.1 512.9C455.4 511.2 456.6 501.8 456.3 499.3C455.8 495 450.3 487.7 448.4 482.8C445.8 473.6 434.2 450.1 441.9 442.8C440.8 469.8 473.1 494.5 494.4 506.9C497.5 508.7 512.9 514 513.5 516.5C514.5 520.8 492.5 529.4 489.9 534.3C478 523.1 461.6 518.8 446.3 514.4L446.2 514.3Z" fill="#B1B4D0"/>
<path d="M257.5 673C262.6 671.5 265.8 670.7 269.7 669C272.9 667.6 272.7 664.8 275.8 663.8C306.6 661 341.5 642.5 331.7 606C333.2 605.8 334.7 605.4 336 604.6C344.4 614.1 354.2 620.9 364.6 628.2C357.1 634 349 639.1 341.7 645.4C334.4 651.6 315.8 673.1 308.1 673.4C301.8 673.6 292.3 670.5 285.3 670.4C274.4 670.1 264.4 673.8 253.5 674L257.5 673Z" fill="#B52416"/>
<path d="M256 168.2C252.9 173.7 256.4 174.8 261.7 172.5C264.1 173.3 266 175.5 267.2 179C270.3 181.4 272.3 184.1 273.1 186.8C309.2 213.1 351.1 227.4 393.7 204.8L401.9 203.9C401.9 201.1 406.2 194.9 409.1 195.3C410.1 193.8 410.1 191.8 408.9 189.4L410.5 188.2C413.5 189.9 414.6 190.1 417.7 192.5C412.9 197.6 426.7 205 419.1 209.7C412.2 205.2 408.5 211.3 403.4 213.3C351.5 236.2 277.3 226.9 251.8 170.4C252.6 168.4 255.2 168.8 256.1 168.3L256 168.2Z" fill="#CDD0E3"/>
<path d="M742.4 764.7C751.438 763.388 755.258 764.499 750.5 768.5C749.527 769.318 745.32 771.015 743.902 772C714.219 792.613 592.103 847.539 585 849.1C578.5 851.6 576.6 845.1 582.1 841.9C636.8 819.7 690.9 793.7 742.3 764.7H742.4Z" fill="#C6CDE4"/>
<path d="M307.5 495.7C306.9 505.5 306 518.6 305.2 529C303.2 531.8 274.6 531.3 276 521.5C280.1 514.8 279.7 514.7 273.1 511.5C268.7 506.8 262.9 502.6 255.8 498.8C247.2 491.2 250.7 486.4 260.4 492.1C265.4 493.9 271.5 483.1 267.4 484.3C257.5 468.7 255.3 455 258.8 437.1C255.7 459.6 280.6 505 307.4 495.7H307.5Z" fill="#BDBCD4"/>
<path d="M821 674.6C818.7 678.2 814.4 680.7 811 683.2C800.9 680.7 773.8 634.8 775.3 624.5C765 602.5 743 572.7 743.8 548.7C767.6 591.7 789.9 636.2 821 674.6Z" fill="#737698"/>
<path d="M406.2 232.5C414.1 288.4 460.6 325.4 513.5 336.9C513.8 338 515.4 339.4 514.9 341.2C456.7 338.8 403.2 291.3 402 232.6C402.6 232 405.5 232.9 406.1 232.6L406.2 232.5Z" fill="#F0F6FB"/>
<path d="M582.1 841.9C581.1 844.6 582.1 850.6 585 849.1C542.1 866.5 498.7 884.8 453.4 896.3C451.6 894 453.9 894.3 453.8 894.3C450.5 894.9 446.8 895.4 447.7 890.6C492.9 875.6 538 859.8 582.2 842L582.1 841.9Z" fill="#B4C1E2"/>
<path d="M769.5 119.5C770.5 119.9 772.2 119.5 773.2 120.9C766.1 158.9 720 187.7 683.1 189.7C665.8 190.6 672.7 189.7 669.4 179.6C706.8 184.9 752.5 160.3 763.8 123.8H745.2C751.3 122.8 758 121.4 764.6 122.2C768.3 122.7 765.1 126 769 124C772.4 122.3 770.8 122.3 769.5 119.5Z" fill="#CFCDDD"/>
<path d="M380.4 840.5C383.6 846.7 378.7 847.3 374.4 843.4C365.7 831.3 357.6 818.8 350.3 805.9L348.9 806.2C333.3 784.7 320.3 761.6 309.8 736.9C312.3 733.7 313.3 729.8 312.8 725.3L314.6 724.7C338.3 759.1 358.8 804.1 380.4 840.6V840.5Z" fill="#53547F"/>
<path d="M543.5 703.2C546.2 715.5 552.3 726.9 561.8 737.3L560.7 740.3C566.3 749.9 529.8 766.5 522.6 772.1C518.4 774.5 508.5 779.7 510.7 771.7C522.2 766.3 535.2 755.8 536.3 742.2C534.5 730.3 534.9 734.1 537.7 723.7C540.8 702.8 524.5 683 530.7 663L533.7 664.3C535.8 676.7 539.8 688.9 545.3 700.2L543.6 703L543.5 703.2Z" fill="#BFC6D6"/>
<path d="M565 934.9C530.1 972 487.5 991.7 438 1000.5C436.7 999.3 437.3 996.5 440.6 995C467.7 985.8 526.3 964.2 543.6 942.1H545C550.3 938.5 556 935.5 562.1 933.1L565 935V934.9Z" fill="#D59993"/>
<path d="M349 806.2C347.2 790.2 381.3 857.4 380.5 840.5C390.8 857.9 403.8 874.2 413.4 892C412.8 895.3 399.7 901.1 396.9 899.4C387.3 879.3 377.5 859.2 367.6 839.1C359.5 834.2 352.2 822.8 351.9 813.4C347.6 814.4 345.8 808.9 349 806.2Z" fill="#45456D"/>
<path d="M635.1 412.8L686.6 407.1C684.2 413.1 682 419.3 680.9 425.7C666.4 431.7 646.3 431.2 630.8 428.6C624.9 430.4 625.2 414.7 626 413.8C629.2 413.8 632.2 413.5 635.1 412.8Z" fill="#FDFDFD"/>
<path d="M845.4 700.3C846.7 701.4 848.6 702.2 849.7 703.9C835.8 719.8 772.6 757.9 749.6 769C750.5 764.9 745.5 765.1 742.4 764.7C778.9 745.8 811.2 721.2 845.4 700.3Z" fill="#B7BED7"/>
<path d="M307.5 720.3C308.5 719.9 309.5 717.9 311.8 718.9C311.7 721.7 313.4 722.8 314.7 724.6L312.6 737.4C324.9 760.2 336.6 783.4 349.1 806.1C350.6 810.1 356.8 822.3 349.1 821.8C333.1 794.8 316.5 767.5 300.5 740.3L301.1 737.1C308.8 734.7 311 729 307.7 720.2L307.5 720.3Z" fill="#D9DBE3"/>
<path d="M712.3 477.1C714 483.6 705 482.1 700.9 483.6C694 487 686.7 489.7 680.8 494.3L679.4 480.6L669.3 465.7C705.3 456.2 702.1 441.9 712.2 477.1H712.3Z" fill="#FCFDFD"/>
<path d="M257.4 980.7C273.6 977.3 287.5 967 299.6 956.4C302 958 298.9 959.5 298.1 960.7C295 965.7 277.5 984.4 294.5 975C269.7 994.5 233 999 206.5 979.3C201.2 975.1 206.4 974.3 195.8 973.6C194.6 973.6 193.3 973.6 192.9 972.2C209.2 965.2 212.3 988.5 257.3 980.8L257.4 980.7Z" fill="#F24B14"/>
<path d="M459.1 445.7C461.5 441.4 461.8 445.9 462.8 447C493.7 481.3 548.2 512.1 595 514.4C594.5 516.3 594.2 518.2 593.4 519.9C548.9 512.2 478.6 490.8 459.1 445.7Z" fill="#F2F7FC"/>
<path d="M298.9 776.1C305 795.3 279.6 754 278.9 755.3C275.2 752.9 272.8 757.5 270.3 758.9L268.9 762.3C265.4 762.6 265.5 764.1 266.6 767.3C269.8 772.7 271.4 785.4 264.7 777.4C262.7 773.8 245.7 747.9 247.5 745.9C256.7 743.8 266.2 738.5 274 733C279.6 734.2 292.6 771.6 299 775.9L298.9 776.1Z" fill="#F9FAFD"/>
<path d="M341.8 900.6C339.2 897 335.2 895.3 332 891C330 888.3 322.2 874.3 324.6 872C329.5 874.9 343.6 866.2 345.2 866.4C347.2 866.7 352.8 873.9 354.1 876.2L356.2 873.4C362.1 883 367.6 892.8 371.9 903.4C371.5 904.6 371 904.6 370.5 903.4L368.7 904C358.8 883.6 353.4 902.7 341.9 900.5L341.8 900.6Z" fill="#7E839A"/>
<path d="M559.3 532.9C544 538.8 527.6 546.9 516.4 558.6L526.4 557.2C526.9 557.6 521.8 562.3 521.3 564.3C520.6 567.1 523.8 570.9 520.7 573L503.5 545.8C526.7 537.4 532 519.2 559.3 532.9Z" fill="#DAE0ED"/>
<path d="M626.5 472.9C636.8 475.7 667.2 479.2 658 495.8C656 495.8 641.7 484.9 637.2 491.4C630.4 501.1 647.8 506.8 650.9 510.1C652.1 519.9 617.1 505.1 616.4 503.7C616.7 491.9 622 483.4 626.6 472.9H626.5Z" fill="#AB724F"/>
<path d="M600.7 864.8C601.7 864.4 605.6 861 604.8 865.3C600.2 889.3 581.1 917.3 565 934.9L549.5 941.7L544.9 942.1C561.2 917.4 583.9 899.9 592.7 870.4L600.7 864.8Z" fill="#C87A70"/>
<path d="M479.1 703.2L482.3 703.6C483.5 714.4 487.6 719.6 494.7 719.3C493.5 711.5 495 706.1 499.1 703.2C499.2 708.7 498.9 714.2 499.1 719.6C499.5 729.6 504.6 731.6 489.8 733.2C471.2 735.2 468.6 732.4 461.9 716C460.7 711.3 460.7 708 461.9 706C467.4 704 473.1 704.5 479.1 703.1V703.2Z" fill="#724C44"/>
<path d="M600.7 864.8C594.9 869.5 594.7 874.2 591.9 879.6C587.6 888.1 582.5 900.2 577 907.6C568.4 919 553.6 930.1 544.9 942H543.5C547.6 938.4 590.9 871.3 576.4 873.3C585 870.2 591.9 868.4 600.7 864.7V864.8Z" fill="#8C160F"/>
<path d="M650.8 510C655.6 515 643.6 524.3 638.6 524.3H615.7C608 524.3 615.1 503.5 616.4 498.6C616.7 503.2 626.7 505.1 630.8 506.4C636.1 508.2 645.8 512.4 650.8 510Z" fill="#693D39"/>
<path d="M702.3 412.8C707.2 414 714.2 414.8 720.4 415.4L722.3 418.5C726.2 419.9 746 423 743.8 427.1L695.2 437.1C696.4 428.8 698.2 420.2 702.4 412.8H702.3Z" fill="#8B523F"/>
<path d="M442 625.9L445.8 629.3C448.3 646.7 451.6 663.8 455.9 680.8C462.4 680.8 469.2 680.1 476.3 678.8L479.2 684.5C473.7 685.7 453 690.9 449.4 688.6C445.8 686.3 437.7 633.9 436.3 625.9C435.3 620 440.4 624.4 442 625.9Z" fill="#E0E2EF"/>
<path d="M631.8 158.4C647.9 155.1 651.4 180 636.9 182.2C624.5 184.1 617.9 161.2 631.8 158.4Z" fill="#F5F9FB"/>
<path d="M689.4 136.7C682.3 138.9 663.4 148.8 657.2 148.2C653.2 147.8 648.6 134.9 646.5 131C656.1 117.6 659.8 136.2 664.6 137.9C673.4 141 681.7 130.8 689.4 136.7Z" fill="#D8D8DF"/>
<path d="M666.5 545.8C662.8 539.1 652.4 544.9 647.9 541.5C658 536.9 665.5 528.1 670.8 518.6C672 521.6 674.8 514.5 677.3 518.6C681.9 526 671.5 540.7 666.5 545.8Z" fill="#9DA0B1"/>
<path d="M367.6 839.1L381.7 867.5C380 886 353 825.2 349 822L351.9 813.4C356.7 822.1 362.7 830.5 367.6 839.1Z" fill="#9D9EC3"/>
<path d="M750.9 477.1C746.6 478.5 742.8 480.4 739.5 482.8L744.1 487.3C752.6 511.4 762.4 535.1 773.8 557.9V564.3C773.4 565.3 772.9 565.3 772.4 564.3C759.8 540.7 742.2 509.2 735.2 484.2C735.2 483.8 736.4 477.3 736.6 477C737.1 476.5 748.4 477.4 750.9 477V477.1Z" fill="#E8806E"/>
<path d="M367.6 839.1C373.1 848.7 383.9 863.6 387.9 872.5C390.4 878.2 393.8 895.1 399.1 898.6C402.1 900.6 410 892.7 413.4 892C420 898.9 400.3 905.4 396.2 902C390.4 890.8 382.7 880 376.2 869.1C380.7 869.6 379 868 377.9 865.2C374.5 856.7 369.1 848.1 367.6 839V839.1Z" fill="#686992"/>
<path d="M429.1 86.6C425.8 89.9 423.6 92.4 420.8 96.2C418.6 99.1 415.7 107.9 411.9 106C400.1 99.8 411.3 84 416.2 76.6C420.3 73.1 427.4 82.5 429.1 86.6Z" fill="#AE5538"/>
<path d="M447.7 890.6C450.3 891.9 453.4 893.1 456.3 893.5V894.9C452.3 896.4 445.1 901.1 441.3 899.4C433.3 890.4 428.4 879.1 422 869.2C425.6 870.5 426.8 866.8 427.7 866.3C428.1 865 428.6 865 429.1 866.3C433.1 868.4 438.3 886 447.7 890.6Z" fill="#D0D5EC"/>
<path d="M479.1 703.2C485.6 701.8 493 698.7 499.8 697.5C501.6 698.5 499.5 701.6 499.1 703.2C497.4 709.7 497.3 714.8 497.7 721.8C481.8 724.4 483.5 714.4 479.1 703.2Z" fill="#A77C50"/>
<path d="M306.1 515.8C305.6 518.7 306.8 532.1 306.1 532.9C302.4 536.7 265 534.4 261.8 524.4C266.3 525.1 272.3 521.7 276.1 521.5C280.4 521.2 278.6 524.5 281.3 525.5C284 526.5 303.8 528.5 304.6 527.1C303.7 522.7 305.6 518.9 306.2 515.8H306.1Z" fill="#D9DAE5"/>
<path d="M270.3 759C269.6 763.7 271.6 768 271.9 772.6C272.1 775.6 270.5 778.6 270.8 780.9C272 790 293.9 824.4 299.7 834.7C300.5 836.1 303.2 839.7 300.4 840.5C288.3 819.6 276.4 798.7 264.6 777.6C272.5 783.7 260.7 765.8 263.3 762.8C264.3 759.5 268.5 760 270.3 759Z" fill="#C6C8D8"/>
<path d="M346.1 910.6L349.7 911C354 922.9 359.5 924.4 369.7 916.4L373.2 917.7C374.3 913.5 377.3 910.8 380.4 914.8C381.6 917.4 385.5 918 381.2 922C349.7 939.6 356.7 936.5 340.4 907.7L341.1 904.8C342.1 907 345.1 909 346.1 910.5V910.6Z" fill="#BEC4DE"/>
<path d="M792.4 594.4C804.7 615 818.6 634.7 834.1 653.5L833.9 655.9L832.5 658.8C808 628.6 790.7 598.5 772.4 564.4C773.4 564.2 776.5 565 777.5 565.2C782.3 574 787.5 582.7 793.3 590.8L792.4 594.4Z" fill="#C74B4D"/>
<path d="M391.9 63.7C413.9 70.2 397.6 77.1 396.2 92.3C380.1 90.1 386.4 73.4 391.9 63.7Z" fill="#B55627"/>
<path d="M526.4 32.3C529.7 33.9 531.6 37.7 532.1 43.7C525.1 46.8 518.3 57.7 513.5 60.2C507.6 63.3 508.8 51.2 510.5 47.2C512.4 42.9 522.1 34.9 526.4 32.3Z" fill="#C1764E"/>
<path d="M424.8 66.6C427.7 64.2 433.2 59.2 436.8 59.4C438.6 59.5 452.8 67.3 453.4 68C456.1 71.9 440.9 76.8 439.1 78C435 80.5 423.5 71.2 424.8 66.6Z" fill="#F9FAF9"/>
<path d="M336.1 840.5C335 855 300.9 784.3 296 779C299 779.3 299.2 779.2 298.9 776.1C311.4 797.5 323.7 819 336.1 840.5Z" fill="#D1D4E8"/>
<path d="M589.3 377C586.7 380.4 584.3 378.9 583.6 374.9C584.5 365.5 581.7 356.3 573.6 351.2C570.7 350.6 567.4 345.8 567.9 342.6L565.1 344C569.8 320.6 583.6 345.8 587 355.8C589 362.1 590.5 370.4 589.5 376.9L589.3 377Z" fill="#AFACBE"/>
<path d="M381.9 59.4C377.5 66.4 373.9 73.6 374.7 82.3C359.3 79.2 351.8 75.8 366.1 62.3C370.5 62.1 375 60.5 378.9 58.2L381.9 59.4Z" fill="#AA5E3C"/>
<path d="M536.4 53.7C545.9 47.1 557.3 44.8 562.1 58C556.8 58.6 552.4 61.8 547.8 63.7C541.6 67.4 534.5 59.4 536.4 53.7Z" fill="#F0E0A9"/>
<path d="M439.1 78C436.1 80 431.7 84 429.1 86.6C423.5 85.7 421.2 79.1 416.2 76.6C419.6 71.6 419.5 70.9 424.8 66.6L439.1 78Z" fill="#F1B657"/>
<path d="M267.4 484.3C267.8 483.1 266.4 481 268.8 481.5C273.1 487.3 265.8 493.4 260.7 494.1C258.8 494.4 253 488.1 253.1 493.6C258.1 498.8 264.6 500.6 270.3 505C288.9 521.2 250.9 503.5 248.8 492.2C240.4 476 250.3 486 255.7 488.2C264 491.6 265.3 491.9 267.5 484.3H267.4Z" fill="#DCDDF3"/>
<path d="M444.8 88.1C453.9 80.8 469.1 85.1 457.7 95.3C454.3 97.3 447.8 101.6 444.8 103.9C441.6 106.9 434.2 100.5 436.2 96.7C439.6 92.7 437.8 90.5 444.8 88.1Z" fill="#F4B778"/>
<path d="M702.3 412.8C702.9 411.7 702 409.6 704.6 408.7C710.9 407.3 729.4 411.1 733.4 417C736.1 419.1 744.9 419.8 742.3 424.4C735.7 422 729 420 722.3 418.5C719.3 417.4 699.7 418 702.3 412.8Z" fill="#EAE3D7"/>
<path d="M307.5 720.3C311.9 719.1 312 730.7 311.6 732.1C310.7 735.2 303.7 739.6 300.4 740.3C299.2 738.2 291.8 729.8 293.3 727.6C298.4 725.5 302.3 722.3 307.5 720.3Z" fill="#F5F8FB"/>
<path d="M658 495.7C666.5 477.1 623.7 480.1 626.5 472.8C627.4 471 628 469.2 627.9 467.1C629.8 465.4 657.5 479.6 659.7 484.6C661 487.6 662.1 495.6 657.9 495.7H658Z" fill="#E5D1C4"/>
<path d="M407.6 68C404.6 64.8 400.9 62.2 396.5 60.2L396.1 58C398.3 55.8 402.5 51.3 405.5 50.8C408.5 50.3 423.7 51.7 421.2 56.6C419.9 59.1 410.4 64.9 407.6 68Z" fill="#F6F5F6"/>
<path d="M444.8 103.8C442 106 427.4 122.3 424.8 119.5C423.7 109.8 430.8 103.1 436.2 96.6L444.8 103.8Z" fill="#B6624B"/>
<path d="M573.6 351.3C573.6 351.3 573.4 349.7 574.3 349.9C579.2 350.6 585.5 360 586.3 365C586.8 368.3 584.2 377.9 589.3 377C588.4 382.3 584.4 381 580.7 384.2C582.3 372.4 577.9 361.9 573.5 351.3H573.6Z" fill="#D1D4E8"/>
<path d="M532.1 43.7C528.1 44.7 527.2 35.8 526.4 32.3C535.2 26.7 540.9 32.4 547.8 38.7C547.8 40.9 534.6 42.6 532.1 43.7Z" fill="#F5EFE8"/>
<path d="M536.4 53.7C540 57 542.8 64.8 547.8 63.7C530.7 73.3 511.9 71.8 536.4 53.7Z" fill="#C57748"/>
<path d="M457.7 95.2C449.8 95 463.1 91.6 459.2 88.7C455.2 85.8 449.2 86.5 444.9 88C453.4 79.5 464.7 75.2 470.6 88.7C467.1 92.2 462 92.6 457.8 95.1L457.7 95.2Z" fill="#F1E5D4"/>
<path d="M516.3 25.1L499.9 40.8C496.6 45.1 493.2 37.2 493.7 34.5C494.8 28.9 510.9 24.1 516.3 25V25.1Z" fill="#D1AE80"/>
<path d="M619.3 412.8C624.5 412.7 629.8 412.9 635 412.8C634.4 415.4 628.6 413.6 627.8 414.2C630.4 419.3 626.2 424.4 630.7 428.5C623 427.2 623.2 429.3 618.5 421.4C616.2 417.6 618 412.9 612.2 414.1C612.2 411.5 617.5 412.7 619.3 412.7V412.8Z" fill="#D3D8EC"/>
<path d="M440.5 995L439.1 997.8L448.5 998.5C445 999.9 374.9 1018.5 399.1 1003.5C396.9 1013.2 435.5 996.1 440.6 994.9L440.5 995Z" fill="#D66B55"/>
<path d="M592.2 88.1C587.6 96.8 582.2 101.1 573.6 105.3L567.1 102.4C574.8 96.6 585.8 93.8 589.3 83.8L592.1 88.1H592.2Z" fill="#D0D7E3"/>
<path d="M414.8 894.9C415.4 896.3 417.6 898.1 416.1 900.5C415.7 901.2 402.9 907 402 907.2C394.7 909 397.6 904.7 396.2 902.1L414.8 894.9Z" fill="#A4A7C9"/>
<path d="M516.3 694.6C517.4 695.7 517.4 720.6 519.1 724.6C514.3 724.4 513.6 696.6 507.7 698.8C506.6 697.2 514.5 692.7 516.3 694.5V694.6Z" fill="#DDC4B1"/>
<path d="M366.1 62.3C371.9 57.5 376.4 54.2 384.1 52.4C389.8 51.1 382.4 58.6 381.9 59.5C377.5 63.5 372.4 63.7 366.9 65.2L366.2 62.3H366.1Z" fill="#E6C098"/>
<path d="M487.7 38L490.6 50.9L476.3 49.5C474 45.1 486.6 36.8 487.7 38.1V38Z" fill="#965E5E"/>
<path d="M407.6 68C407 68.6 406.8 70.1 406.2 70.9C402.2 70 396.3 65.7 393.3 62.3C394.3 60.9 393.8 60.4 396.2 58C401.7 60.3 407.9 60.2 407.6 68Z" fill="#F0C5A5"/>
<path d="M619.3 338.4C630.9 338.9 619.6 365 629.3 357C621.7 375.3 623 342.5 619.3 338.4Z" fill="#CACEDB"/>
<path d="M371.9 903.4C376 903.3 378.7 911.2 380.5 914.8C378.3 915.6 375.4 916.6 373.3 917.7C370.3 915.5 367.2 905.9 370.4 903.4H371.8H371.9Z" fill="#8789AD"/>
<path d="M406.2 70.9C405.3 72.1 403.5 73.5 403.3 73.8C401.3 67 387.9 67.8 393.3 62.4C398.5 62.3 402.8 67.4 406.2 71V70.9Z" fill="#DB8E4F"/>
<path d="M742.4 421.4C743.3 422.1 744.8 422.2 745.1 423.7C745.5 425.3 745.6 426.8 743.8 427.1L722.3 418.5C731.4 417.3 738.8 424.3 742.3 421.4H742.4Z" fill="#BDB0A5"/>
<path d="M462 706C461.2 709.3 465 714 462 716C461.3 713.3 455.8 704.5 462 706Z" fill="#B8A2AF"/>
<path d="M740.9 543C738.6 539 734.8 535.3 735.2 530.1C737.1 533.9 741.5 537.8 740.9 543Z" fill="#737698"/>
<path d="M770.2 844.8C777.6 851.3 778.7 859.1 768.8 863.4C759.9 859.3 764.3 849.7 770.2 844.8Z" fill="#D1D0DA"/>
<path d="M766.4 259.5C757.4 262.8 757.7 269.3 753.3 269.7L739.6 257.6C743.2 255.7 751.2 241.8 754.5 242.6C755.2 242.8 758.7 248.3 760.2 249.8C762.6 252.3 769.4 254.4 766.5 259.5H766.4Z" fill="#F9FAFD"/>
<path d="M308.6 306.6C308.2 307.3 296.3 316.9 295.5 316.8C294.7 316.7 284.3 307.5 283.9 306.9C280.3 301 285.9 301.2 288.2 298.4C290 296.3 293.6 289.3 296.5 289.8C300 294.3 312.6 299.7 308.5 306.6H308.6Z" fill="#F8FAFC"/>
<path d="M496.6 229C546.1 228.2 546.1 154.5 496.6 153.6C447.1 154.4 447.1 228.1 496.6 229Z" fill="#01012B"/>
<path d="M621.2 267.9C626.4 274.3 633.5 269 636.8 263.6C640.1 258.2 640.4 245.9 650.8 254.8C663.9 265.9 640.8 290.3 625.9 289.9C619.8 289.7 614.7 284.1 611.5 284.2C596 293.7 576.8 296.8 561.1 284.5C554.7 280.1 541.3 268 552.7 261.2C562.8 255.1 564.8 263.8 570 268.4C581.6 278.7 610.5 275.4 602.9 258.4C599.3 250.5 567 246 574.3 231.2C580.4 218.7 605 238.8 608.4 238.1C614.1 237 625.2 216 635.1 226.1C648.1 241.9 609.7 249.1 621.1 268L621.2 267.9Z" fill="#01011B"/>
<path d="M387.6 182.5C394.6 181.7 413.1 186.6 409.1 195.4C407.1 208.8 385.5 205.9 376.2 198.3L371 199.8C343.5 191.7 315.6 185.4 286.8 189.1L281.8 186.8C281.5 191.6 274.1 187.3 269.6 185.4C265.4 181.9 262.3 178.2 261.7 172.5C290.8 159.7 356.9 172.1 387.6 182.5Z" fill="#010121"/>
<path d="M410.5 188.2C413.7 197.5 409.9 194.3 409.1 195.4C408.5 187.8 393.6 185.5 387.6 182.5C391.2 177.6 407.9 183.3 410.5 188.2Z" fill="#D7D6EC"/>
<path d="M474.9 668.8C476.7 672.1 476.9 674.9 476.3 678.8C475.2 686.2 471.4 681.3 467.3 681.9C463.2 682.5 457.9 687 454.1 683.1C449.7 678.6 445 634.9 442 625.8C454.1 631.3 467.4 631.6 470.3 648.3C472.1 658.9 469.2 658.1 474.9 668.7V668.8Z" fill="#C1C2DB"/>
<path d="M626.5 766.1C626 769.9 629.2 773.7 629.4 777C629.6 781.5 620.9 786.2 628 786.1C565.3 815.2 508.2 837 442.7 859C439.4 860.1 429.5 862.5 429.2 866.2C429 866.2 427.9 866.2 427.8 866.2C423.5 847.4 409 826.3 400.6 809C401.3 807.1 402.7 805.6 404.7 804.4C402.5 785 398.5 767.1 416.8 754C423.4 723.1 448.1 760.2 459.3 769.6C478.3 783.1 491.3 777.2 510.7 771.8C510.9 771.8 510.7 773.8 513.9 773C521.4 771.1 523.2 767.3 527.3 764.9C540.3 757.3 552.2 753.8 560.7 740.3L565.5 741C581 755.4 601.9 762.1 622.7 763.1L626.5 766.1Z" fill="#AAB4BE"/>
<path d="M775.3 624.5C786.1 644.6 796.7 665.5 811.1 683.2C789.6 698.5 765.2 714.1 742.4 727.5C738.6 722.7 733.7 729.5 730.4 729C729 728.8 729.1 723.6 724.5 723.1C720.3 722.7 713.8 730.2 712.4 722.4C710.6 712.6 717.2 711.6 718.9 706.1C719.9 702.8 718.9 698.2 719.9 696.3C720.7 694.8 729.4 687.4 731.6 684.4C739.9 672.5 743.3 659.7 753.1 650.1C755.7 644.6 754.1 635.9 756 631.6C756.3 630.9 766 622.3 766.7 622.1C769.9 621.2 772.3 624.3 775.3 624.4V624.5Z" fill="#AAB4BE"/>
<path d="M652.2 774.7C649.3 776.1 646.5 777.6 643.6 779L635 771.8C642.2 775.2 648 766.5 652.2 774.7Z" fill="#AAB4BE"/>
<path d="M716.6 677.4C692.9 782.6 540 771.2 530.6 663.1C526.1 522.3 742.8 534.7 716.6 677.4Z" fill="#020122"/>
<path d="M626.5 766.1C591.2 767.4 554.9 745.1 542.4 712.2C542.4 710.2 545.7 706.8 543.5 703.2C586.1 772.2 696.7 756.9 716.6 677.5C711 729.9 683.2 767 626.5 766.2V766.1Z" fill="#7C7FA0"/>
<path d="M949.8 511.5C938.6 550.6 875.9 644.3 836.4 655.6C793.1 605.4 759.3 544.1 739 481C739.2 479.7 762.6 476.3 765.3 476.2C770.5 490.7 779.1 497.2 791 495.8C798.1 490.7 797.4 483 800.3 475.8C825.2 492 869.2 488.9 899.8 497.9C915.5 501.7 934.5 510 949.8 511.5Z" fill="#FB5918"/>
<path d="M750.9 477.1C753.5 476.5 767.3 472.1 768.1 472.8C769.7 486 776.3 496.8 791 495.7C785 500 774.8 494.3 771 489.2C769 486.6 767.5 479.8 764.3 478.7C760.1 477.2 743.5 479.7 739.5 482.7C739.2 481.8 737.1 480.8 738.1 478.4C743.2 479.3 746.8 477.9 751 477L750.9 477.1Z" fill="#C74F26"/>
<path d="M442 751.8C441 751.2 427.5 745 426.6 744.8C419.9 743.8 421.4 751 419.7 754.5C417.4 759.2 407.7 765.4 406.8 768.7C405.2 774.9 405.9 788.4 406.1 795.4C406.3 802.4 411.3 807.3 400.4 808.9C377.7 774.2 357.4 736.3 337.6 699.4C347 692.4 354.9 683.2 363.9 675.9C368.2 672.4 377.3 668.6 380.4 665.1C381.7 663.5 380.3 662.2 381.8 660.2C391.2 671.8 408.3 670.3 421.2 673C423.3 700.4 426.9 728.2 441.8 751.8H442Z" fill="#B3BDC3"/>
<path d="M370.4 903.4C371.8 906.4 375 915.2 373.3 917.7C366.2 921.5 359.1 928.9 351.8 920.9C347.1 915 345.8 906.7 341.8 900.5C343.8 897.8 359.1 890.4 361.2 890.5C363.2 890.5 369.3 900.9 370.4 903.4Z" fill="#52557F"/>
<path d="M949.8 512.9L952.7 513.6C937.7 576.1 906.5 633.2 870.4 685.9C869.4 687.5 868.2 687.6 866.5 687.1C866.2 689 821.9 649.2 839.7 654.4C890.3 618 920.1 566.1 949.8 512.8V512.9Z" fill="#991909"/>
<path d="M839.6 654.5C837.9 655.7 836.2 656.3 836.7 658.8C827.9 650.3 822.2 638.6 813.2 630.1L792.4 594.4C807.9 612.1 820.7 643.4 839.6 654.5Z" fill="#C42D1A"/>
<path d="M281.7 186.8C306.5 211.3 350 218 382.3 205.5C377.1 203.9 375.1 201.5 376.1 198.3C384.5 200.6 393.2 202.9 401.8 204C355 227.2 311.8 218.4 273.1 186.8C275.9 186.6 279 187.1 281.7 186.8Z" fill="#BD637E"/>
<path d="M508.5 194.1C524.8 194.1 524.8 169.2 508.5 169.1C492.2 169.1 492.2 194 508.5 194.1Z" fill="#F7FBFC"/>
<path d="M376.1 198.2C379.2 202.5 393 204 381.8 208.9C357.2 219.8 293.4 214.6 281.7 186.7C320.3 182 340.2 188.3 376.1 198.1V198.2Z" fill="#E3444D"/>
<path d="M694.3 624.2C710 662.6 698.3 704.1 654.9 714.6C648.8 712.8 648 712.2 651.1 706.3C699.2 679.8 689.9 611.6 633.3 602.9C582.2 595.1 543.8 662 585.9 697.5L586.4 701.6C589.3 705.1 593.6 708.2 597.5 711C597.3 716 592.5 716.5 587.3 711.9C578.8 719.7 570.7 705 564.8 700.3C551.8 683 543.6 655.2 555 635.8C574.3 574.8 663.3 572 694.4 624.1L694.3 624.2Z" fill="#FA661D"/>
<path d="M694.3 624.2C692.8 627.5 690.2 622.8 689.7 622C655.3 573.2 579.7 583 555 635.9C553.3 637.3 552.6 636.3 552.9 632.8C570.5 567.1 668.9 561.1 694.4 624.2H694.3Z" fill="#FAFAF9"/>
<path d="M564.8 700.4C569.4 702.2 575 711.7 579.2 712.5C581.2 712.9 584.5 709.2 587.4 709.1C590.1 709.1 593 713.4 596.4 713.1C597.5 712.2 598.7 711.8 600 712.2C617.3 716.9 631.5 719.2 648.9 712.2L650.7 713.2C658 710.5 663.8 706.9 670.8 703.9C676.9 701.3 682.9 702.5 688.4 696.3C661.8 739.5 594.2 741.8 564.7 700.4H564.8Z" fill="#E24622"/>
<path d="M555 635.9C552.2 642.7 551.5 650.3 549.6 657.3C549.3 649 550.4 640.7 552.8 632.8L554.9 635.9H555Z" fill="#E0C1AD"/>
<path d="M649.4 710.3C633.9 722.5 599.1 717.8 586.5 701.7C531.4 658.4 592.2 572.4 656.6 608C698.7 631.3 691.9 691.9 649.4 710.3Z" fill="#030126"/>
<path d="M649.4 710.3C653.2 710.1 652.7 710.3 650.8 713.2C629.4 721.3 600.1 723.1 585 702.5L586.4 701.8C602.9 714.8 630 718.8 649.3 710.4L649.4 710.3Z" fill="#F2916E"/>
<path d="M642.5 618.1L641.8 621.1C595.4 637.8 650.1 675.7 653.8 638.7C652.6 633.1 653.3 629.5 656.1 627.8C681.1 652.9 661.4 699.3 625.9 698.7C581.6 698.4 575.4 650.4 603.8 623.1L604.8 619.7C616.4 613.2 630.4 612.6 642.6 618.1H642.5Z" fill="#54DBFD"/>
<path d="M642.5 618.1C647.6 620.4 652.2 623.7 656 627.8C656.2 637.1 658.8 645.2 650.8 652.5C626 671.5 601.8 628.8 642.5 618.1Z" fill="#FBFDFE"/>
<path d="M604.7 619.7C607.2 622.4 608.9 620.6 606.4 623.8C598.7 633.9 593.7 637.3 590.8 651.1C589.4 657.6 590.3 665.5 589.2 670.7C588.9 671.9 585.4 671.7 586.9 674.3C577.6 654.3 585.3 630.4 604.7 619.7Z" fill="#41B2F5"/>
</svg>
